<svg xmlns="http://www.w3.org/2000/svg" width="302.642" height="302.642" viewBox="0 0 302.642 302.642">
  <g id="bx-category-alt" transform="translate(-12 -12)">
    <g id="Group_11377" data-name="Group 11377" transform="translate(12 12)">
      <path id="Path_9848" data-name="Path 9848" d="M129.694,12H28.813A16.813,16.813,0,0,0,12,28.813V129.694a16.813,16.813,0,0,0,16.813,16.813H129.694a16.813,16.813,0,0,0,16.813-16.813V28.813A16.813,16.813,0,0,0,129.694,12ZM112.881,112.881H45.627V45.627h67.254Zm184.948,67.254H196.948a16.813,16.813,0,0,0-16.813,16.813v100.88a16.813,16.813,0,0,0,16.813,16.813h100.88a16.814,16.814,0,0,0,16.813-16.813V196.948A16.813,16.813,0,0,0,297.828,180.134ZM281.015,281.015H213.761V213.761h67.254ZM247.388,12a67.254,67.254,0,1,0,67.254,67.254A67.321,67.321,0,0,0,247.388,12Zm0,100.881a33.627,33.627,0,1,1,33.627-33.627A33.661,33.661,0,0,1,247.388,112.881ZM79.254,180.134a67.254,67.254,0,1,0,67.254,67.254A67.321,67.321,0,0,0,79.254,180.134Zm0,100.881a33.627,33.627,0,1,1,33.627-33.627A33.661,33.661,0,0,1,79.254,281.015Z" transform="translate(-12 -12)" fill="#fff"/>
    </g>
  </g>
</svg>
